<?xml version="1.0" standalone="no"?>
<!DOCTYPE svg PUBLIC "-//W3C//DTD SVG 20010904//EN"
 "http://www.w3.org/TR/2001/REC-SVG-20010904/DTD/svg10.dtd">
<svg version="1.0" xmlns="http://www.w3.org/2000/svg"
 width="600.000000pt" height="600.000000pt" viewBox="0 0 600.000000 600.000000"
 preserveAspectRatio="xMidYMid meet">
<metadata>
Created by potrace 1.11, written by Peter Selinger 2001-2013
</metadata>
<g transform="translate(0.000000,600.000000) scale(0.100000,-0.100000)"
fill="#000000" stroke="none">
<path d="M501 5984 c-173 -46 -321 -199 -361 -373 -10 -42 -13 -417 -13 -1705
-1 -1515 1 -1656 16 -1707 23 -77 81 -141 155 -170 l57 -23 803 -2 c442 -1
806 -4 809 -7 3 -3 -2 -29 -11 -59 -34 -115 -137 -184 -289 -192 -72 -4 -95
-10 -147 -33 -37 -17 -110 -101 -110 -125 0 -8 -3 -18 -7 -22 -4 -3 -8 -12 -9
-19 -2 -7 -6 -23 -9 -37 -9 -34 -14 -216 -8 -263 l5 -38 1619 3 c1102 2 1620
6 1622 13 16 48 0 280 -22 323 -5 9 -16 33 -25 52 -17 40 -77 99 -120 118 -15
7 -62 15 -104 18 -42 3 -80 8 -86 11 -6 4 -19 8 -31 9 -31 4 -90 31 -105 49
-11 14 -2 15 96 14 60 0 213 3 339 7 685 22 900 -2 1060 -117 25 -18 45 -37
45 -42 0 -5 6 -15 14 -21 7 -6 20 -30 29 -53 14 -35 14 -43 2 -53 -19 -16
-135 -11 -247 11 -141 28 -309 59 -348 65 -180 25 -304 -3 -362 -80 -44 -60
-32 -197 30 -326 14 -30 29 -62 33 -70 6 -13 -9 -15 -109 -15 -109 1 -118 0
-140 -22 -19 -19 -22 -30 -17 -63 l6 -40 -59 0 -60 0 -6 44 c-13 83 -1 81
-400 82 -313 1 -420 -6 -402 -24 3 -3 1 -11 -4 -18 -6 -6 -9 -27 -7 -46 l4
-35 -59 -2 c-32 -1 -58 2 -59 6 0 4 -2 25 -4 47 -6 78 120 71 -1367 71 -871 0
-1341 -3 -1362 -10 -21 -7 -42 -27 -66 -62 -31 -49 -37 -53 -73 -53 -95 0
-212 -48 -274 -112 -46 -48 -322 -495 -329 -534 -20 -110 71 -194 240 -220 23
-3 73 -8 111 -9 39 -2 72 -4 75 -5 3 -1 10 -1 15 0 28 7 395 4 395 -3 0 -5 5
-5 12 -1 15 10 148 11 148 2 0 -4 7 -5 16 -1 24 9 486 10 506 1 9 -5 19 -5 21
-1 4 7 276 9 302 3 6 -1 12 -2 15 0 16 6 100 4 100 -3 0 -4 8 -4 18 0 15 7 42
8 100 4 8 -1 10 -6 6 -13 -5 -8 -1 -8 10 1 13 11 55 15 182 15 90 1 164 -3
164 -7 0 -5 5 -5 12 -1 15 10 148 11 148 2 0 -4 7 -5 16 -1 23 9 304 9 304 0
0 -4 8 -4 18 0 15 7 42 8 100 4 8 -1 10 -6 6 -13 -4 -8 1 -7 12 2 15 13 52 15
200 14 99 0 186 -4 192 -8 6 -3 13 -3 15 1 4 7 275 9 302 3 6 -1 15 -1 20 0
31 6 255 4 255 -3 0 -5 5 -5 12 -1 15 10 148 11 148 2 0 -4 7 -5 16 -1 24 9
464 9 464 0 0 -5 5 -5 12 -1 15 10 148 11 148 2 0 -4 7 -5 16 -1 24 9 464 9
464 0 0 -4 8 -4 18 1 19 9 91 8 116 -1 9 -4 16 -3 16 1 0 10 112 8 129 -2 10
-6 12 -5 7 2 -7 11 17 15 92 16 12 0 22 3 22 7 0 4 14 10 30 14 17 4 43 13 59
21 33 16 91 78 92 97 0 7 2 23 5 36 2 13 0 39 -5 57 -10 37 -255 435 -308 502
-55 68 -156 118 -264 131 -3 1 -20 24 -37 51 -18 28 -43 55 -59 62 -15 6 -85
11 -155 12 -124 1 -129 2 -145 26 -35 49 -89 172 -98 220 -2 14 -6 34 -8 45
-6 33 14 65 47 74 32 9 192 6 236 -4 14 -4 39 -8 55 -11 89 -14 141 -28 147
-38 6 -8 8 -7 8 2 0 8 5 10 12 6 6 -4 28 -9 47 -11 20 -2 42 -4 49 -5 6 -1 12
-4 12 -7 0 -7 84 -14 168 -15 28 -1 52 -5 52 -10 0 -5 6 -4 13 1 6 6 27 13 45
16 31 6 52 21 81 60 15 19 32 107 22 107 -4 0 -7 9 -8 20 -3 35 -53 124 -96
168 -51 52 -117 91 -217 127 -41 14 -76 26 -78 25 -2 -1 -28 3 -97 15 -116 21
-376 24 -1017 13 -153 -3 -281 -2 -286 1 -5 3 -14 16 -21 28 l-11 22 827 3
828 3 58 29 c68 33 107 85 128 169 10 41 13 388 12 1667 0 888 -2 1640 -4
1670 -12 221 -176 410 -389 449 -36 7 -888 10 -2490 10 -2096 0 -2442 -2
-2489 -15z"/>
<path d="M5015 1480 c-3 -5 -1 -10 4 -10 6 0 11 5 11 10 0 6 -2 10 -4 10 -3 0
-8 -4 -11 -10z"/>
<path d="M4993 1435 c0 -8 4 -12 9 -9 5 3 6 10 3 15 -9 13 -12 11 -12 -6z"/>
<path d="M5836 1442 c-3 -5 1 -9 9 -9 8 0 12 4 9 9 -3 4 -7 8 -9 8 -2 0 -6 -4
-9 -8z"/>
<path d="M4895 1400 c-3 -5 -1 -10 4 -10 6 0 11 5 11 10 0 6 -2 10 -4 10 -3 0
-8 -4 -11 -10z"/>
<path d="M5595 1371 c-3 -5 -2 -12 3 -15 5 -3 9 1 9 9 0 17 -3 19 -12 6z"/>
<path d="M5705 1360 c-3 -6 1 -7 9 -4 18 7 21 14 7 14 -6 0 -13 -4 -16 -10z"/>
</g>
</svg>
